<?xml version="1.0" encoding="UTF-8" standalone="no"?>
<!-- Generator: Adobe Illustrator 13.0.0, SVG Export Plug-In . SVG Version: 6.00 Build 14948)  -->
<svg
   xmlns:dc="http://purl.org/dc/elements/1.1/"
   xmlns:cc="http://web.resource.org/cc/"
   xmlns:rdf="http://www.w3.org/1999/02/22-rdf-syntax-ns#"
   xmlns:svg="http://www.w3.org/2000/svg"
   xmlns="http://www.w3.org/2000/svg"
   xmlns:sodipodi="http://sodipodi.sourceforge.net/DTD/sodipodi-0.dtd"
   xmlns:inkscape="http://www.inkscape.org/namespaces/inkscape"
   version="1.0"
   id="Layer_1"
   x="0px"
   y="0px"
   width="180"
   height="180"
   viewBox="0 0 192.756 192.756"
   enable-background="new 0 0 192.756 192.756"
   xml:space="preserve"
   sodipodi:version="0.32"
   inkscape:version="0.45.1"
   sodipodi:docname="Agip.svg"
   inkscape:output_extension="org.inkscape.output.svg.inkscape"
   sodipodi:docbase="C:\Users\Virgile"><metadata
   id="metadata6611"><rdf:RDF><cc:Work
       rdf:about=""><dc:format>image/svg+xml</dc:format><dc:type
         rdf:resource="http://purl.org/dc/dcmitype/StillImage" /></cc:Work></rdf:RDF></metadata><defs
   id="defs6609" /><sodipodi:namedview
   inkscape:window-height="748"
   inkscape:window-width="1024"
   inkscape:pageshadow="2"
   inkscape:pageopacity="0.0"
   guidetolerance="10.0"
   gridtolerance="10.0"
   objecttolerance="10.0"
   borderopacity="1.0"
   bordercolor="#666666"
   pagecolor="#ffffff"
   id="base"
   height="180px"
   width="180px"
   inkscape:zoom="1.9558406"
   inkscape:cx="96.377998"
   inkscape:cy="96.377998"
   inkscape:window-x="1392"
   inkscape:window-y="-8"
   inkscape:current-layer="Layer_1" />
<g
   id="g6590"
   transform="matrix(1.0601714,0,0,1.0600973,-5.7986698,-5.7925855)">
	
	<path
   d="M 33.652,182.241 C 27.295,182.24 21.513,179.654 17.321,175.469 C 13.126,171.281 10.521,165.497 10.52,159.109 L 10.52,33.653 C 10.52,27.294 13.122,21.511 17.313,17.319 C 21.509,13.123 27.292,10.516 33.649,10.515 L 159.1,10.515 C 165.461,10.515 171.246,13.123 175.443,17.321 C 179.633,21.513 182.234,27.295 182.235,33.652 L 182.235,159.108 C 182.235,165.498 179.63,171.283 175.433,175.471 C 171.241,179.656 165.46,182.242 159.103,182.242 L 33.652,182.242 L 33.652,182.241 z "
   id="path6594" />
	<path
   d="M 14.986,134.338 L 177.77,134.338 L 177.77,33.651 C 177.77,28.515 175.669,23.845 172.287,20.46 C 168.908,17.08 164.241,14.981 159.101,14.981 L 33.65,14.981 C 28.514,14.982 23.849,17.081 20.471,20.459 C 17.087,23.845 14.987,28.516 14.987,33.654 L 14.987,134.338 L 14.986,134.338 z "
   id="path6596"
   style="fill:#ffd400" />
	<path
   d="M 177.77,138.804 L 14.986,138.804 L 14.986,159.109 C 14.986,164.274 17.083,168.94 20.461,172.311 C 23.844,175.688 28.513,177.776 33.652,177.776 L 159.104,177.776 C 164.243,177.775 168.912,175.688 172.294,172.313 C 180.424,164.198 177.77,148.938 177.77,138.804 L 177.77,138.804 z "
   id="path6598"
   style="fill:#ffffff" />
	<polygon
   clip-rule="evenodd"
   points="79.303,147.145 79.303,141.628 85.217,141.628 85.217,147.145 79.303,147.145 "
   id="polygon6600"
   style="fill:#da1e49;fill-rule:evenodd" />
	<path
   clip-rule="evenodd"
   d="M 60.839,44.574 C 62.272,43.446 63.22,42.955 64.905,42.246 C 66.796,41.463 67.964,41.17 70.016,40.962 C 69.621,40.543 69.431,40.278 69.089,39.812 C 68.761,39.364 68.556,39.121 68.274,38.648 C 69.918,38.411 69.544,38.535 72.442,37.83 C 75.99,37.026 77.217,35.516 81.623,35.404 C 86.621,35.28 87.094,37.012 90.684,37.485 C 93.435,37.851 95.016,37.887 97.78,37.831 L 96.952,39.581 C 98.508,40.046 99.406,40.314 101.019,40.385 C 104.122,40.544 105.737,38.413 108.805,38.77 C 111.232,39.045 112.651,39.63 114.618,41.097 C 113.243,41.436 112.298,41.439 111.127,42.141 C 108.806,43.53 106.192,47.184 102.19,47.826 C 97.428,48.644 94.648,48.524 90.11,47.48 L 90.684,48.989 C 89.475,48.856 88.78,48.76 87.552,48.749 C 84.078,48.742 82.202,50.132 78.728,50.033 C 74.087,49.903 71.749,48.643 67.223,47.007 C 65.897,46.549 64.874,46.965 63.499,46.436 C 62.334,45.964 61.728,45.484 60.839,44.574 L 60.839,44.574 z "
   id="path6602"
   style="fill:#da1e49;fill-rule:evenodd" />
	<path
   clip-rule="evenodd"
   d="M 92.659,158.07 C 92.666,155.185 93.259,152.851 96.108,152.841 C 98.372,152.852 99.554,155.186 99.554,158.07 L 99.537,158.07 C 99.537,160.942 98.372,163.277 96.094,163.277 C 93.259,163.277 92.652,160.942 92.659,158.07 L 92.659,158.07 z M 50.875,159.348 L 47.814,150.495 L 45.172,159.348 L 50.875,159.348 L 50.875,159.348 z M 41.695,161.7 L 47.803,142.404 L 54.585,161.7 L 41.695,161.7 L 41.695,161.7 z M 39.55,168.01 L 41.426,162.505 L 54.807,162.505 L 56.873,168.01 L 53.921,168.01 L 52.841,164.857 L 43.495,164.857 L 42.504,168.01 L 39.55,168.01 L 39.55,168.01 z M 48.41,141.832 L 50.964,141.832 L 60.617,168.01 L 57.661,168.01 L 48.41,141.832 L 48.41,141.832 z M 35.813,168.01 L 38.769,168.01 L 47.24,141.832 L 44.665,141.832 L 35.813,168.01 L 35.813,168.01 z M 74.277,168.482 L 74.277,161.898 C 73.254,164.166 71.201,166.027 68.394,166.027 C 63.665,166.027 61.785,162.468 61.785,158.078 C 61.785,153.67 63.872,150.082 68.366,150.082 C 71.35,150.086 73.286,151.856 74.278,154.212 L 74.278,148.514 L 71.823,148.514 L 71.823,149.797 C 70.624,148.668 69.001,148.132 66.913,148.132 C 61.507,148.132 59.243,152.583 59.243,158.07 C 59.243,163.545 61.507,168.009 66.913,168.009 C 69.044,168.009 70.624,167.389 71.823,166.232 L 71.823,168.5 C 71.823,169.633 70.652,170.57 68.797,170.57 C 66.723,170.57 65.736,169.632 65.736,168.5 L 63.352,168.482 C 63.352,170.605 65.274,172.52 68.853,172.52 C 72.429,172.521 74.277,170.605 74.277,168.482 L 74.277,168.482 z M 75.06,168.482 L 75.06,148.513 L 77.543,148.513 L 77.557,168.499 C 77.557,172.135 74.986,175.099 68.881,175.099 C 62.793,175.099 60.218,172.135 60.218,168.499 L 62.553,168.481 C 62.553,171.02 64.789,173.313 68.908,173.313 C 73.035,173.314 75.06,171.021 75.06,168.482 L 75.06,168.482 z M 71.829,158.07 C 71.836,160.942 71.247,163.277 68.394,163.277 C 66.129,163.277 64.951,160.942 64.951,158.07 L 64.933,158.07 C 64.933,155.185 66.115,152.851 68.379,152.841 C 71.248,152.852 71.822,155.186 71.829,158.07 L 71.829,158.07 z M 62.553,158.054 C 62.553,162.029 64.224,165.239 68.365,165.239 C 72.133,165.239 74.174,162.029 74.174,158.054 C 74.174,154.082 72.326,150.868 68.365,150.868 C 64.592,150.868 62.553,154.082 62.553,158.054 L 62.553,158.054 z M 82.657,167.813 L 82.657,148.514 L 85.218,148.514 L 85.218,167.813 L 82.657,167.813 L 82.657,167.813 z M 79.303,167.813 L 79.303,148.514 L 81.874,148.514 L 81.874,167.813 L 79.303,167.813 L 79.303,167.813 z M 89.442,174.079 L 89.428,148.514 L 86.945,148.514 L 86.959,174.09 L 89.442,174.079 L 89.442,174.079 z M 90.226,174.079 L 90.226,161.898 C 91.235,164.166 93.301,166.027 96.094,166.027 C 100.824,166.027 102.718,162.468 102.718,158.078 C 102.718,153.67 100.634,150.082 96.126,150.082 C 93.139,150.086 91.206,151.856 90.226,154.212 L 90.226,148.514 L 92.653,148.514 L 92.653,149.797 C 93.866,148.668 95.488,148.132 97.576,148.132 C 103.001,148.132 105.264,152.583 105.264,158.07 C 105.264,163.545 103,168.009 97.576,168.009 C 95.46,168.009 93.866,167.389 92.653,166.232 L 92.681,174.089 L 90.226,174.079 L 90.226,174.079 z M 101.935,158.054 C 101.935,154.082 99.896,150.868 96.126,150.868 C 92.18,150.868 90.317,154.082 90.317,158.054 C 90.317,162.029 92.355,165.239 96.126,165.239 C 100.268,165.238 101.935,162.028 101.935,158.054 L 101.935,158.054 z "
   id="path6604"
   style="fill-rule:evenodd" />
	<path
   clip-rule="evenodd"
   d="M 65.128,28.308 C 65.601,28.195 65.777,28.195 66.175,28.252 C 66.694,28.365 66.694,28.636 66.75,29.014 L 68.394,36.209 C 68.365,36.354 68.334,36.442 68.274,36.555 C 68.097,36.851 68.038,36.735 67.519,36.971 L 66.532,37.37 C 66.429,37.458 66.369,37.504 66.295,37.606 C 66.129,37.832 65.953,38.04 66.059,38.305 L 65.833,39.469 C 66.059,39.779 65.509,40.16 65.128,40.164 C 64.874,40.17 64.67,39.956 64.67,39.694 L 64.212,38.996 C 64.184,39.204 63.93,38.714 63.739,38.771 C 63.541,38.82 63.337,39.123 63.499,39.236 L 63.281,40.626 C 63.457,40.965 62.97,41.317 62.586,41.317 C 62.321,41.317 62.159,41.116 62.113,40.859 L 61.651,40.165 C 61.609,40.041 61.535,39.875 61.418,39.928 C 61.34,39.974 61.27,39.935 61.192,39.928 L 56.996,42.023 C 56.833,42.143 56.763,42.277 56.773,42.485 C 56.791,42.693 56.861,42.813 56.996,42.947 L 59.732,48.354 C 59.76,48.674 59.983,48.833 60.265,48.992 C 60.515,49.123 60.663,49.218 60.956,49.218 L 65.361,49.923 L 66.059,49.218 C 65.985,49.041 66.341,48.914 66.532,48.992 C 66.708,49.063 66.869,49.289 66.75,49.451 L 66.532,52.48 C 66.514,52.671 66.411,52.787 66.295,52.935 C 66.116,53.168 65.868,53.288 65.601,53.171 L 59.57,52.243 C 59.274,52.25 59.126,52.134 58.858,52.007 C 58.505,51.848 58.297,51.724 58.047,51.425 L 56.065,49.217 C 55.995,49.062 55.685,49.058 55.607,49.217 C 55.533,49.414 55.522,49.619 55.667,49.742 C 56.404,50.881 56.774,51.544 57.47,52.697 C 58.432,54.309 58.299,55.773 59.79,56.894 C 61.003,57.801 61.991,58.105 63.5,58.048 C 62.421,59.247 61.401,59.769 59.79,59.91 C 57.321,60.115 55.784,58.803 54.217,56.894 C 54.175,56.637 53.791,56.637 53.582,56.771 C 53.374,56.898 53.526,57.279 53.744,57.343 C 54.514,58.401 54.869,58.655 55.148,59.677 C 55.476,60.905 55.342,61.73 54.915,62.929 C 53.846,62.421 53.243,62.132 52.132,61.758 C 51.07,61.42 50.435,61.307 49.338,61.067 C 48.394,61.613 47.977,62.104 47.24,62.929 C 45.925,64.424 45.498,65.613 45.156,67.577 C 44.402,67.231 43.925,66.935 43.47,66.3 C 42.318,64.847 43.115,63.041 43.989,60.135 C 44.151,59.974 43.65,59.571 43.883,59.557 C 44.152,59.543 43.263,59.645 43.291,59.91 C 42.318,62.52 42.201,63.455 41.429,64.552 C 39.983,66.699 38.431,67.734 35.86,68.277 C 36.466,67.163 36.788,66.492 37.028,65.251 C 37.309,63.741 36.717,62.811 37.028,61.305 C 37.394,59.457 37.825,58.353 38.991,56.895 C 39.213,56.751 39.26,56.398 39.065,56.254 C 38.861,56.095 38.417,56.159 38.417,56.427 C 37.5,57.524 36.967,58.289 35.638,58.748 C 34.438,59.164 33.568,59.199 32.386,58.748 C 33.614,57.915 34.22,57.14 34.707,55.722 C 35.3,54.015 34.086,52.851 34.467,51.081 C 34.809,49.533 35.166,48.647 36.096,47.364 C 34.989,47.759 34.174,47.583 33.076,47.138 C 32.015,46.694 31.454,46.104 30.992,45.043 C 32.47,44.43 33.284,43.921 34.466,42.832 C 35.827,41.587 36.095,40.282 37.259,38.998 C 38.296,37.834 39.672,37.39 41.427,37.146 L 39.804,27.853 L 48.41,33.891 C 48.573,34.017 48.671,34.141 48.883,34.131 C 49.161,34.103 65.128,28.308 65.128,28.308 L 65.128,28.308 z M 148.965,83.658 C 150.694,84.486 153.171,85.346 153.171,85.346 C 153.675,85.392 153.971,85.416 154.457,85.458 C 154.203,85.776 154.192,86.033 153.985,86.39 C 153.766,86.824 153.777,87.137 153.526,87.55 C 154.119,87.878 154.486,88.076 155.166,88.132 C 155.833,88.192 156.228,88.094 156.898,87.896 C 156.912,87.039 156.722,89.307 156.2,89.995 C 155.756,90.588 155.375,90.852 154.676,91.152 C 154.5,91.102 154.31,91.314 154.338,91.505 C 154.366,91.724 154.578,91.875 154.81,91.851 C 155.594,91.911 156.087,91.964 156.78,92.317 C 157.622,92.733 158.066,93.085 158.641,93.826 C 158.094,93.791 157.739,93.706 157.237,93.946 C 156.913,94.109 156.645,94.115 156.437,94.412 C 156.172,94.405 155.833,94.49 155.862,94.757 C 155.876,95.043 156.024,95.388 156.321,95.339 C 156.78,95.597 157.076,95.703 157.47,96.027 C 157.931,96.394 158.154,96.633 158.521,97.078 C 158.154,97.691 157.992,98.087 157.47,98.588 C 156.941,99.112 156.616,99.4 155.963,99.751 L 158.168,105.099 C 158.965,105.12 159.438,105.211 160.149,105.561 C 160.961,105.945 161.314,106.375 161.891,107.067 C 161.464,107.63 161.197,107.956 160.608,108.347 C 160.015,108.738 159.691,109.028 158.993,109.155 L 158.862,113.69 C 158.774,114.079 158.717,114.342 158.404,114.614 C 158.048,114.95 157.738,115.059 157.236,115.084 L 150.039,116.244 C 149.58,116.149 149.224,115.895 149.118,115.422 C 149.005,114.911 149.118,114.41 149.58,114.153 L 154.809,108.929 C 155.05,108.693 155.165,108.456 155.165,108.111 C 155.138,107.706 154.9,107.533 154.675,107.186 C 153.17,104.735 151.779,103.738 150.154,101.381 C 148.291,98.669 147.684,96.839 145.749,94.179 C 145.53,93.882 145.452,93.681 145.159,93.473 C 144.758,93.177 144.39,93.261 143.889,93.135 C 140.87,92.313 139.364,92.669 135.993,91.731 L 125.543,88.949 L 126.121,91.965 C 126.164,92.229 126.252,92.395 126.475,92.557 C 126.679,92.705 126.87,92.648 127.165,92.67 C 127.702,92.592 127.804,92.557 128.545,92.67 C 129.43,92.846 129.769,93.191 130.876,93.358 C 131.574,93.474 132.032,93.411 132.738,93.241 C 132.738,94.215 132.399,94.797 131.809,95.569 C 131.366,96.126 131.073,96.465 130.403,96.73 C 130.198,96.8 129.944,96.857 129.944,97.079 C 129.944,97.272 130.106,97.434 130.304,97.429 C 130.67,97.429 130.875,97.527 131.232,97.658 C 131.736,97.855 131.972,98.117 132.384,98.472 L 130.642,99.174 C 130.304,99.516 130.106,99.302 130.184,99.516 C 130.24,99.725 130.332,99.816 130.466,99.979 C 130.875,100.503 131.055,100.965 131.69,101.146 C 131.393,101.372 131.249,101.52 130.938,101.728 C 130.141,102.253 129.471,102.37 128.78,102.888 C 128.675,102.997 128.661,103.153 128.6,103.35 L 128.897,107.875 C 128.914,108.266 128.762,108.485 128.544,108.81 C 128.364,109.113 128.188,109.283 127.849,109.392 L 120.309,110.792 C 119.956,110.792 119.646,110.753 119.494,110.442 C 119.259,109.941 119.613,109.676 120.072,109.155 L 124.492,102.997 C 124.746,102.722 124.862,102.461 124.834,102.073 C 124.815,101.84 124.773,101.664 124.711,101.487 C 123.737,99.639 122.884,98.708 121.417,97.198 C 120.013,95.749 119.142,95.16 117.41,93.947 C 117.174,93.827 116.983,93.644 116.817,93.358 C 116.521,92.85 116.937,92.318 116.701,91.852 C 115.829,90.512 115.442,89.961 114.959,88.597 C 114.898,88.421 115.015,88.213 114.854,88.135 C 114.533,87.998 114.426,88.488 114.16,88.721 C 112.857,89.765 111.408,91.218 111.366,91.966 C 111.249,92.787 111.366,93.137 112.519,93.827 C 113.051,94.181 114.16,94.064 115.196,93.947 C 115.015,94.508 114.752,94.758 114.381,95.217 C 113.926,95.802 113.539,96.039 112.875,96.384 C 113.407,96.339 113.718,96.413 114.265,96.437 C 114.723,96.458 114.96,96.437 115.432,96.494 C 114.723,97.079 113.807,97.845 113.807,98.356 C 113.807,99.062 114.96,99.174 115.887,100.211 C 114.498,100.331 114.026,100.977 113.33,101.728 C 112.402,102.708 111.912,102.313 111.605,103.118 C 111.5,103.379 111.5,103.548 111.485,103.823 L 111.366,109.621 C 111.218,109.964 111.189,110.214 110.892,110.443 C 110.554,110.705 110.286,110.827 109.842,110.793 L 101.489,110.898 C 101.211,110.933 100.869,110.721 100.91,110.443 C 100.957,110.143 100.957,109.727 101.266,109.738 L 107.062,103.35 C 107.241,103.138 107.195,102.934 107.181,102.652 C 107.153,102.387 107.062,102.194 106.826,102.074 C 105.305,100.378 104.487,99.344 103.218,97.429 C 101.873,95.366 101.239,94.11 100.206,91.852 C 99.669,91.802 99.345,91.93 98.816,92.085 C 98.209,92.261 97.955,92.558 97.426,92.903 C 97.172,92.903 96.996,93.111 96.95,93.358 C 96.922,93.591 96.922,93.771 97.084,93.947 C 97.455,94.314 97.736,94.463 98.237,94.628 C 98.886,94.864 99.316,94.991 99.979,94.864 C 99.848,95.812 99.584,96.373 98.931,97.079 C 98.088,97.989 97.264,98.345 96.022,98.355 C 96.259,98.595 96.42,98.701 96.714,98.825 C 97.073,98.955 97.278,99.061 97.663,99.061 C 96.904,99.914 96.27,100.246 95.225,100.683 C 93.998,101.173 93.155,101.212 91.854,101.036 C 91.987,101.064 91.585,101.04 91.497,101.145 C 91.335,101.338 91.839,101.833 91.953,101.607 C 92.249,101.805 92.46,101.843 92.785,101.96 C 93.258,102.108 93.554,102.08 94.055,102.073 C 93.596,102.927 93.078,103.314 92.193,103.702 C 91.206,104.146 90.479,104.055 89.4,103.822 C 89.223,103.618 88.733,103.656 88.705,103.931 C 88.687,104.139 88.751,104.336 88.941,104.386 C 89.53,104.591 89.886,104.82 90.225,105.327 C 90.599,105.881 90.789,107.63 90.803,106.953 C 90.535,106.896 90.373,106.896 90.109,106.953 C 89.59,107.041 89.339,107.278 88.821,107.419 C 87.816,107.693 87.198,107.804 86.162,107.648 C 86.31,108.032 86.31,108.29 86.282,108.692 C 86.219,109.136 86.131,109.421 85.824,109.736 L 83.489,113.805 C 83.309,114.041 83.087,114.133 82.791,114.152 C 82.374,114.179 82.021,114.063 81.86,113.689 L 76.746,110.085 C 76.612,109.846 76.51,109.673 76.51,109.391 C 76.524,109.056 76.672,108.752 76.986,108.693 L 83.265,104.754 C 83.265,104.754 83.963,104.168 84.418,101.96 L 87.335,92.318 C 87.23,92.579 87.42,91.789 87.201,91.627 C 86.993,91.45 86.693,91.415 86.503,91.627 C 84.492,91.88 83.328,91.958 81.269,91.966 C 79.012,91.98 77.724,91.913 75.477,91.627 L 74.542,95.454 C 75.103,95.627 75.399,95.803 75.935,96.029 C 76.408,96.241 76.655,96.367 77.1,96.614 C 76.853,97.468 76.525,97.919 75.935,98.59 C 75.265,99.344 74.792,99.772 73.848,100.103 C 73.551,100.095 73.241,100.276 73.255,100.565 C 73.287,100.769 73.318,100.939 73.495,101.038 C 73.749,101.44 73.968,101.62 74.307,101.962 C 74.839,102.491 75.238,102.71 75.936,102.999 C 75.256,103.404 74.839,103.642 74.088,103.824 C 73.509,103.958 73.153,103.916 72.578,103.933 C 72.338,103.933 72.148,104.056 72.105,104.279 C 72.063,104.529 72.134,104.723 72.338,104.861 C 72.874,104.966 73.171,105.135 73.615,105.446 C 74.426,105.982 74.87,106.483 75.138,107.422 C 73.847,107.651 73.847,107.535 71.883,108.578 C 71.351,108.875 70.776,108.267 70.36,108.695 C 70.152,108.921 70.018,109.087 70.018,109.393 L 68.039,113.692 C 67.937,114.006 67.655,114.081 67.33,114.155 C 66.932,114.26 66.589,114.127 66.296,113.808 L 61.772,110.32 C 61.595,110.052 61.624,109.827 61.652,109.517 C 61.687,109.114 61.906,108.91 62.23,108.695 L 65.602,106.483 C 66.145,105.837 66.639,105.446 66.751,104.629 C 67.111,102.191 65.273,100.379 64.79,97.547 C 64.431,95.518 64.272,94.365 64.212,92.32 C 62.956,92.08 62.258,91.854 61.062,91.389 C 59.877,90.927 59.26,90.549 58.163,89.883 C 58.106,90.176 57.719,89.351 57.469,89.527 C 57.208,89.724 57.589,90.55 57.352,90.345 L 57.469,92.56 C 57.483,92.778 57.645,92.87 57.807,93.015 C 57.988,93.174 58.163,93.139 58.4,93.139 C 59.052,92.941 59.48,92.969 60.146,93.139 C 61.271,93.407 61.906,93.971 62.463,94.993 C 61.698,95.219 61.299,95.491 60.721,96.03 C 60.03,96.679 59.72,97.145 59.331,98.012 C 59.127,98.22 59.034,98.429 59.098,98.707 C 59.155,98.989 59.377,99.176 59.669,99.176 C 60.085,99.275 60.322,99.363 60.72,99.518 C 61.432,99.804 61.799,100.069 62.462,100.454 C 62.215,100.989 61.962,101.229 61.651,101.73 C 61.151,102.516 60.484,102.774 60.145,103.585 C 60.028,103.881 60.247,104.023 60.367,104.279 C 60.635,104.85 61.034,105.135 61.651,105.21 C 61.062,106.025 61.192,106.251 60.484,106.956 C 60.029,107.422 59.627,107.605 58.978,107.768 C 58.724,107.838 58.625,108.085 58.639,108.35 C 58.639,108.614 58.723,108.875 58.978,108.932 L 60.265,110.321 C 59.627,110.607 59.288,110.826 58.752,111.246 C 57.764,112.05 57.736,113.002 56.773,113.809 C 55.902,114.539 54.971,114.353 54.216,115.206 C 53.864,115.594 53.743,115.887 53.525,116.359 L 52.354,122.178 C 52.369,121.487 52.164,123.322 51.66,123.8 C 51.098,124.337 50.581,124.52 49.815,124.492 L 43.989,124.492 C 43.47,124.492 43.114,124.548 42.952,124.139 C 42.836,123.912 42.952,123.849 43.29,123.327 C 47.712,118.043 47.078,119.042 49.103,116.357 C 49.682,115.552 49.928,114.862 50.034,113.806 C 50.125,112.893 49.886,112.392 49.815,111.482 C 49.088,103.85 47.314,99.695 44.919,92.437 C 43.796,89.069 42.587,86.336 41.663,83.661 C 40.482,80.239 39.764,76.908 40.278,72.451 C 40.588,69.774 41.901,65.715 41.901,65.715 C 42.26,66.649 42.613,67.108 43.29,67.806 C 44.031,68.56 44.609,68.889 45.611,69.202 C 45.985,67.58 46.397,66.691 47.24,65.252 C 48.009,63.972 48.538,63.292 49.575,62.233 C 50.668,62.565 51.275,62.783 52.354,63.171 C 53.554,63.58 54.174,63.933 55.37,64.321 C 55.889,63.693 56.111,63.249 56.301,62.459 C 56.509,61.683 56.509,61.161 56.301,60.37 C 58.047,61.245 59.26,61.52 61.193,61.306 C 63.634,61.023 65.199,60.209 66.752,58.284 C 67.14,59.962 67.243,60.996 66.988,62.696 C 66.769,64.209 66.47,65.088 65.718,66.417 C 65.426,66.523 65.426,67.095 65.718,67.235 C 65.898,67.313 66.06,67.157 66.176,66.995 C 67.506,66.212 68.201,65.704 69.432,64.794 C 70.744,63.814 71.484,63.235 72.68,62.121 C 73.212,63.433 73.286,64.308 73.152,65.715 C 72.99,67.157 72.711,68.018 71.882,69.203 C 71.766,69.351 71.73,69.556 71.882,69.668 C 72.016,69.784 72.193,69.774 72.337,69.668 C 73.924,69.478 74.898,68.907 75.934,67.693 C 76.689,66.811 76.509,65.933 77.218,65.027 C 77.797,64.258 78.255,63.891 79.066,63.391 C 78.713,64.364 78.84,64.671 78.946,66.064 C 79.009,67.108 79.482,67.99 80.35,68.561 C 80.35,68.561 80.47,68.759 80.572,68.73 C 80.66,68.723 80.766,68.73 80.766,68.624 C 80.928,67.581 81.179,67.037 81.757,66.184 C 82.331,65.295 82.864,64.886 83.841,64.441 C 83.841,65.478 84.095,66.098 84.638,66.995 C 85.174,67.827 85.523,68.328 86.5,68.674 C 86.5,68.73 86.824,68.726 86.736,68.73 C 86.648,68.751 86.856,68.561 86.856,68.561 C 87.134,67.581 87.444,67.044 88.126,66.304 C 88.807,65.56 89.279,65.119 90.225,64.795 C 90.137,66.008 90.465,66.742 91.043,67.807 C 91.48,68.625 91.897,69.006 92.651,69.549 C 92.798,69.676 93.004,69.676 93.123,69.549 C 93.229,69.461 93.183,69.324 93.123,69.204 C 92.918,67.839 92.947,66.929 93.595,65.716 C 93.98,64.979 94.319,64.591 94.985,64.09 C 95.323,65.077 95.486,65.652 96.022,66.538 C 96.565,67.398 96.903,67.885 97.663,68.562 C 97.631,68.753 98.019,68.837 98.118,68.675 C 98.195,68.583 98.252,68.478 98.181,68.389 C 98,66.996 97.722,66.241 98.357,64.908 C 98.872,63.808 99.035,63.938 99.627,63.518 C 99.715,64.572 100.294,65.282 101.267,65.716 C 102.157,66.122 102.936,66.185 103.768,65.536 C 103.768,65.536 104.015,65.261 103.987,65.374 C 103.931,65.55 103.694,65.088 103.634,65.028 C 101.61,63.046 101.018,59.212 103.059,57.184 C 105.083,55.153 108.169,54.804 110.198,56.839 C 111.189,57.823 111.126,59.622 110.138,60.612 C 109.164,61.656 107.464,61.656 106.487,60.612 C 106.075,60.139 106.191,59.621 106.191,59.621 C 106.297,59.575 106.308,59.364 106.191,59.328 C 106.061,59.293 105.898,59.377 105.898,59.505 C 105.736,59.921 105.779,60.211 105.793,60.672 C 105.821,62.059 106.77,63.046 108.333,63.172 C 110.671,63.391 113.284,61.127 114.025,58.524 C 115.431,53.763 118.225,42.724 128.439,42.833 C 134.827,42.95 139.231,47.365 139.231,53.174 L 139.231,53.174 C 139.246,53.488 139.231,53.989 139.231,53.989 C 139.231,57.875 136.924,60.729 134.47,61.896 C 137.853,64.556 139.481,65.6 142.141,70.594 C 144.285,74.663 144.935,77.217 146.55,80.702 C 147.022,81.753 147.198,82.74 148.19,83.263 C 148.42,83.387 148.683,83.521 148.965,83.658 L 148.965,83.658 z M 134.587,53.695 C 134.605,53.526 134.587,53.17 134.587,53.17 C 134.707,49.801 131.603,47.746 128.323,47.481 C 124.816,47.192 122.983,48.871 120.885,52.588 C 119.277,55.494 118.681,57.476 117.059,60.368 C 116.067,62.118 115.549,62.58 113.687,64.319 C 113.497,64.379 113.348,64.615 113.454,64.792 C 113.585,64.976 113.927,65.113 114.026,64.905 C 116.657,64.277 118.124,63.488 120.19,61.759 C 121.877,60.369 122.734,59.382 123.801,57.477 C 123.667,57.343 123.756,57.103 123.914,57.004 C 124.105,56.871 124.391,57.011 124.493,57.237 C 125.706,58.817 127.152,59.374 129.135,59.325 C 132.21,59.26 134.471,56.714 134.587,53.695 L 134.587,53.695 z M 51.38,39.34 C 51.775,40.106 52.825,40.385 53.637,39.982 C 54.395,39.527 54.674,38.536 54.215,37.774 C 53.799,37.027 52.84,36.748 52.092,37.142 C 51.324,37.548 50.964,38.536 51.38,39.34 L 51.38,39.34 z "
   id="path6606"
   style="fill-rule:evenodd" />
</g>
</svg>