<?xml version="1.0" encoding="utf-8"?>
<!-- Generator: Adobe Illustrator 15.0.2, SVG Export Plug-In . SVG Version: 6.00 Build 0)  -->
<svg version="1.2" baseProfile="tiny" id="Calque_1"
	 xmlns="http://www.w3.org/2000/svg" xmlns:xlink="http://www.w3.org/1999/xlink" x="0px" y="0px" width="280px" height="280px"
	 viewBox="0 0 280 280" overflow="inherit" xml:space="preserve">
<path fill="#FF4607" d="M65.674,237.118c7.894,0,10.018-2.021,10.018-4.249c0-1.623-1.567-3.135-4.806-3.135
	c-4.448,0-8.14,3.08-9.715,7.081C62.842,237.007,64.361,237.118,65.674,237.118 M60.312,241.256c0,3.85,2.331,6.429,6.683,6.429
	c3.533,0,5.968-1.368,7.782-3.787c0.096-0.159,2.283,0.35,2.283,2.068c0,1.011-0.31,1.614-1.217,2.53
	c-2.021,1.966-4.861,3.031-8.951,3.031c-7.376,0-11.123-4.305-11.123-10.112c0-8.848,6.724-15.429,15.315-15.429
	c5.825,0,9.158,2.729,9.158,6.724c0,4.909-3.238,7.894-14.106,7.894c-1.774,0-3.597-0.104-5.77-0.303L60.312,241.256z"/>
<path fill="#FF4607" d="M79.185,248.894c0-1.05,0.549-1.87,1.869-3.031l7.631-7.28l-5.411-10.622
	c-0.096-0.198,0.916-1.614,2.841-1.614c1.56,0,2.323,0.811,3.031,2.721l3.286,7.145l9.851-10.12
	c0.111-0.056,2.745,0.557,2.745,2.529c0,1.067-0.557,1.862-1.878,3.031l-8.291,7.941l2.021,4.003
	c1.774,3.531,2.881,3.993,5.211,4.089c0.191,0,0.191,3.485-3.238,3.485c-2.474,0-4.145-1.106-6.421-6.317l-1.272-2.881l-9.246,9.452
	C81.857,251.472,79.185,250.867,79.185,248.894"/>
<path fill="#FF4607" d="M112.363,239.283c-0.812,4.256,1.767,8.147,6.667,8.147c5.419,0,8.45-5.252,8.45-10.416
	c0-4.353-2.832-6.93-6.222-6.93c-3.23,0-6.262,2.021-7.988,4.948L112.363,239.283z M122.635,225.986
	c5.156,0,9.803,3.685,9.803,10.623c0,7.535-5.259,14.911-13.041,14.911c-4.201,0-7.232-2.269-8.553-5.093l-2.57,12.029
	c-0.366,1.767-1.019,2.371-2.291,2.371h-0.549c-1.361,0-2.531-0.557-2.125-2.371l6.724-31.81c0.056-0.104,0.557-0.255,1.265-0.255
	c1.719,0,3.342,0.907,2.729,4.297C116.104,227.713,118.832,225.986,122.635,225.986"/>
<path fill="#FF4607" d="M150.196,225.986c2.124,0,3.892,1.059,3.892,2.777c0,2.482-2.069,3.342-2.164,3.247
	c-0.669-0.765-1.623-1.369-3.247-1.369c-3.58,0-5.967,4.296-7.224,10.376l-1.624,7.725c-0.357,1.775-1.066,2.379-2.274,2.379h-0.605
	c-1.312,0-2.483-0.557-2.124-2.379l4.702-22.095c0.056-0.104,0.549-0.255,1.273-0.255c1.702,0,3.325,0.907,2.721,4.249
	C145.137,227.602,147.309,225.986,150.196,225.986"/>
<path fill="#FF4607" d="M163.795,237.118c7.885,0,10.009-2.021,10.009-4.249c0-1.623-1.559-3.135-4.797-3.135
	c-4.448,0-8.147,3.08-9.708,7.081C160.962,237.007,162.481,237.118,163.795,237.118 M158.432,241.256
	c0,3.85,2.332,6.429,6.684,6.429c3.533,0,5.967-1.368,7.782-3.787c0.103-0.159,2.274,0.35,2.274,2.068
	c0,1.011-0.302,1.614-1.209,2.53c-2.021,1.966-4.854,3.031-8.951,3.031c-7.384,0-11.123-4.305-11.123-10.112
	c0-8.848,6.724-15.429,15.316-15.429c5.816,0,9.158,2.729,9.158,6.724c0,4.909-3.238,7.894-14.115,7.894
	c-1.767,0-3.588-0.104-5.761-0.303L158.432,241.256z"/>
<path fill="#FF4607" d="M179.938,248.337c-0.764-0.757-1.272-1.671-1.272-2.521c0-1.775,1.925-2.634,2.076-2.483
	c1.615,2.428,4.607,4.4,8.395,4.4c3.198,0,4.957-1.36,4.957-3.39c0-1.813-1.869-2.578-4.957-3.644
	c-3.485-1.258-7.232-2.722-7.232-7.13c0-4.399,3.691-7.583,9.46-7.583c3.747,0,6.771,1.267,8.449,2.984
	c0.859,0.812,1.266,1.671,1.266,2.53c0,1.926-2.133,2.682-2.283,2.427c-1.36-2.38-4.249-4.146-7.479-4.146
	c-3.143,0-4.71,1.56-4.71,3.278c0,1.926,2.028,2.736,5.268,3.954c3.588,1.313,7.231,2.776,7.231,6.931
	c0,4.551-3.588,7.582-9.77,7.582C185.095,251.527,181.762,250.111,179.938,248.337"/>
<path fill="#FF4607" d="M203.101,248.337c-0.757-0.757-1.266-1.671-1.266-2.521c0-1.775,1.926-2.634,2.068-2.483
	c1.624,2.428,4.615,4.4,8.402,4.4c3.184,0,4.957-1.36,4.957-3.39c0-1.813-1.878-2.578-4.957-3.644
	c-3.492-1.258-7.232-2.722-7.232-7.13c0-4.399,3.692-7.583,9.46-7.583c3.749,0,6.771,1.267,8.451,2.984
	c0.851,0.812,1.257,1.671,1.257,2.53c0,1.926-2.124,2.682-2.276,2.427c-1.36-2.38-4.248-4.146-7.487-4.146
	c-3.134,0-4.702,1.56-4.702,3.278c0,1.926,2.029,2.736,5.268,3.954c3.588,1.313,7.225,2.776,7.225,6.931
	c0,4.551-3.588,7.582-9.763,7.582C208.257,251.527,204.915,250.111,203.101,248.337"/>
<path fill="#FF4607" d="M28.907,200.82c-3.282-3.374-5.396-8.274-5.396-14.401c0-5.855,2.069-10.797,5.291-14.273
	c3.231-3.47,7.615-5.475,12.262-5.475c8.291,0.016,14.163,5.823,14.187,10.836c0,2.69-1.694,4.774-4.002,4.774
	c-1.138,0-2.196-0.39-2.976-1.114c-0.78-0.731-1.273-1.813-1.257-3.127c-0.017-1.566,0.795-2.521,1.399-3.206
	c-1.098-1.894-3.254-3.453-6.636-3.461c-2.88,0.008-5.307,1.495-7.057,4.122c-1.743,2.633-2.777,6.405-2.777,10.876
	c0,4.455,1.078,8.211,2.872,10.829c1.79,2.626,4.273,4.105,7.153,4.114c3.389-0.009,5.538-1.552,6.635-3.454
	c-0.612-0.669-1.407-1.639-1.407-3.198c0-1.306,0.485-2.387,1.265-3.119c0.78-0.74,1.846-1.129,2.977-1.129
	c2.307,0,4.002,2.068,4.009,4.757c-0.031,5.045-5.887,10.829-14.202,10.853C36.641,206.023,32.185,204.186,28.907,200.82
	 M146.163,188.066c0.524-0.008,0.677-0.136,0.771-0.295l0.135-0.979c-0.055-2.538-2.02-4.877-5.067-4.892
	c-3.827,0-5.387,3.071-5.617,6.166H146.163z M70.719,192.489c-2.929,0.024-4.901,1.409-4.926,4.13
	c0.024,2.578,1.759,4.312,4.496,4.337c1.774,0,3.588-0.979,4.734-2.404v-3.778c0-0.501-0.343-1.066-1.067-1.527
	C73.233,192.8,72.135,192.489,70.719,192.489 M181.801,190.946c0.016,7.312,3.19,10.447,6.309,10.463
	c3.573,0,6.158-3.151,6.167-9.31c0-3.214-0.708-5.775-1.869-7.527c-1.162-1.742-2.754-2.657-4.583-2.672
	C184.124,181.915,181.824,185.257,181.801,190.946 M89.488,204.862c-1.146-0.318-1.878-0.947-1.878-1.894l0.311-1.201l0.055-0.136
	l0.152-0.032c0.453-0.096,1.17-0.302,1.829-0.812c0.669-0.564,0.947-1.353,0.947-3.563v-11.124c-0.056-1.87-0.493-2.529-2.045-2.578
	l-1.241,0.144l-0.238,0.048l-0.088-0.23l-0.246-1.218c0.039-2.212,2.466-3.342,4.113-3.852c0.652-0.206,1.249-0.302,1.813-0.31
	c2.236,0,3.453,1.566,3.971,3.604c1.464-2.371,3.804-3.931,6.078-3.931c2.117,0,4.305,1.399,4.313,4.073
	c-0.009,1.894-1.337,3.884-3.597,3.884c-1.647,0-3.096-1.099-3.405-2.706c-1.273,0.43-3.079,2.005-3.096,7.495v6.7
	c0,2.211,0.326,2.991,0.986,3.563c0.613,0.478,1.935,0.716,2.412,0.812l0.15,0.032l0.057,0.136l0.342,1.288
	c0.008,0.899-0.677,1.521-1.759,1.822c-1.098,0.327-2.697,0.446-4.877,0.446C92.329,205.324,90.658,205.196,89.488,204.862
	 M111.433,204.862c-1.154-0.318-1.878-0.947-1.878-1.894l0.303-1.201l0.063-0.136l0.15-0.032c0.446-0.096,1.17-0.302,1.823-0.812
	c0.676-0.564,0.946-1.353,0.954-3.563v-11.124c-0.056-1.87-0.493-2.529-2.045-2.578l-1.241,0.144l-0.247,0.048l-0.087-0.23
	l-0.246-1.218c0.039-2.212,2.474-3.342,4.121-3.852c0.652-0.206,1.249-0.302,1.813-0.31c2.236,0,3.446,1.566,3.971,3.604
	c1.464-2.371,3.795-3.931,6.07-3.931c2.125,0,4.312,1.399,4.321,4.073c0,1.894-1.337,3.884-3.597,3.884
	c-1.647,0-3.096-1.099-3.397-2.706c-1.281,0.43-3.095,2.005-3.104,7.495v6.7c0.009,2.211,0.327,2.991,0.986,3.563
	c0.613,0.478,1.935,0.716,2.411,0.812l0.144,0.032l0.063,0.136l0.334,1.288c0.017,0.899-0.668,1.521-1.758,1.822
	c-1.09,0.327-2.697,0.446-4.87,0.446C114.273,205.324,112.603,205.196,111.433,204.862 M158.432,204.862
	c-1.161-0.318-1.902-0.954-1.902-1.901l0.304-1.202l0.071-0.127l0.144-0.032c0.446-0.096,1.169-0.302,1.83-0.812
	c0.668-0.564,0.938-1.353,0.946-3.563v-14.616l-3.922-0.145l-0.064-0.166l-0.31-1.377c0-1.425,1.105-2.379,2.489-2.379h1.711v-1.623
	c0-3.915,0.725-6.126,1.72-7.622c1.535-2.379,4.184-4.01,8.234-4.01c5.101,0,9.356,2.37,9.389,6.174
	c-0.009,1.647-1.146,3.69-3.54,3.69c-1.799-0.007-3.445-1.495-3.454-3.389c0-0.708,0.231-1.416,0.582-1.941
	c-0.533-0.469-1.552-0.748-2.538-0.748c-1.592,0.016-2.451,0.558-2.993,1.465c-0.548,0.906-0.731,2.243-0.731,3.747v4.209h6.747
	l0.072,0.184l0.294,1.4c0.008,1.472-1.042,2.569-2.355,2.681l-1.512,0.056c-1.122,0-2.235-0.079-3.055-0.104v14.514
	c0,2.194,0.357,2.982,1.025,3.563c0.597,0.463,2.268,0.725,2.754,0.812l0.143,0.032l0.071,0.136l0.271,1.105
	c0,1.003-0.812,1.639-2.037,1.973c-1.266,0.351-3.039,0.479-5.299,0.479C161.289,205.324,159.602,205.196,158.432,204.862
	 M238.666,204.862c-1.146-0.318-1.886-0.947-1.886-1.894l0.318-1.21l0.056-0.127l0.151-0.023c0.421-0.096,1.178-0.311,1.806-0.82
	c0.684-0.564,0.955-1.353,0.955-3.563v-11.124c-0.056-1.877-0.484-2.529-2.045-2.578l-1.241,0.144l-0.238,0.048l-0.088-0.23
	l-0.239-1.202c0.04-2.22,2.467-3.357,4.106-3.867c0.668-0.198,1.249-0.31,1.838-0.31c2.228,0,3.437,1.6,3.954,3.651
	c1.456-2.387,3.779-3.978,6.062-3.978c2.148,0,4.312,1.399,4.312,4.073c0,1.894-1.337,3.875-3.564,3.884
	c-1.654,0-3.11-1.099-3.438-2.706c-1.265,0.43-3.038,2.005-3.055,7.495v6.7c0.008,2.211,0.318,2.999,0.931,3.548
	c0.645,0.493,1.965,0.731,2.428,0.836l0.143,0.023l0.063,0.136l0.334,1.297c0.017,0.907-0.659,1.52-1.742,1.813
	c-1.09,0.327-2.689,0.446-4.854,0.446C241.515,205.324,239.844,205.196,238.666,204.862 M187.824,205.689
	c-3.74,0-7.138-1.4-9.596-3.852c-2.475-2.449-4.003-5.95-4.003-10.128c0.016-8.251,6.508-13.868,13.845-13.885
	c3.938,0,7.368,1.401,9.787,3.852c2.426,2.435,3.858,5.919,3.858,10.033c0,4.129-1.487,7.63-3.979,10.089
	c-2.49,2.467-5.959,3.891-9.906,3.891H187.824z M129.271,192.242c0-4.184,1.369-7.797,3.779-10.358
	c2.404-2.562,5.849-4.073,9.915-4.059c3.707-0.015,6.46,1.369,8.242,3.342c1.807,1.974,2.665,4.512,2.665,6.866
	c0,1.377-0.294,2.683-0.897,3.765l-0.08,0.159h-16.566c0.271,4.805,3.342,8.18,8.688,8.21c3.286,0,5.824-1.813,6.66-2.896
	l0.176-0.223l0.222,0.176c0.486,0.334,0.995,0.97,0.995,2.164c-0.024,2.784-3.278,6.341-10.494,6.349
	C135.238,205.722,129.279,199.882,129.271,192.242 M224.758,204.465c-0.485-0.685-0.756-1.543-0.979-2.531l-1.075,1.099
	c-1.773,1.654-4.097,2.657-6.714,2.657c-2.849,0-5.284-1.098-6.836-2.912c-2.379-2.84-2.362-6.445-2.362-11.553v-4.933
	c-0.04-1.989-0.677-2.674-2.515-2.721l-0.787,0.047l-0.224,0.032l-0.079-0.215l-0.231-1.059c0.072-2.388,3.088-3.659,4.854-4.026
	c0.629-0.096,1.21-0.19,1.767-0.19c1.448-0.008,2.515,0.461,3.183,1.289c0.668,0.843,0.939,1.989,0.939,3.31l-0.049,8.418
	c0,3.104,0.223,5.427,0.907,6.922c0.692,1.481,1.75,2.181,3.685,2.196c2.108,0,3.381-0.906,4.2-2.26
	c0.804-1.353,1.099-3.183,1.099-4.933v-6.811c-0.04-1.989-0.676-2.674-2.522-2.721l-0.78,0.047l-0.23,0.032l-0.071-0.215
	l-0.23-1.059c0.071-2.388,3.079-3.659,4.86-4.026c0.621-0.096,1.202-0.19,1.768-0.19c1.447-0.008,2.505,0.461,3.189,1.289
	c0.669,0.843,0.947,1.989,0.947,3.31c0,0.972-0.096,2.682-0.104,9.851c0.008,3.023-0.04,4.631-0.04,5.124
	c0.04,2.068,0.74,2.983,2.642,3.023l0.653-0.04l0.223-0.016l0.079,0.206l0.215,1.035c-0.079,2.331-3.096,3.263-4.846,3.604
	c-0.62,0.096-1.169,0.19-1.655,0.19h-0.047C226.23,205.737,225.323,205.26,224.758,204.465 M58.553,197.08
	c0-2.641,1.162-4.789,3.136-6.237c1.957-1.448,4.71-2.212,7.885-2.212c1.989,0,4.033,0.365,5.45,0.971v-2.959
	c-0.048-2.992-1.187-4.695-4.543-4.742c-0.629,0-2.037,0.174-3.184,0.557l0.176,1.304c0,1.003-0.327,1.926-0.924,2.603
	c-0.604,0.676-1.495,1.09-2.569,1.09c-1.949-0.007-3.413-1.575-3.413-3.548c0.048-3.629,4.455-6.08,10.351-6.08
	c4.671,0,7.599,1.114,9.174,3.12c1.416,1.813,1.497,4.456,1.497,8.179v9.723c0.023,1.878,1.097,2.388,3.437,2.753l0.271,0.032
	l-0.023,0.271c-0.136,2.562-2.021,3.628-4.043,3.787l-0.524,0.017c-1.997,0.016-3.914-0.971-4.838-2.96
	c-1.249,1.058-4.081,3.031-7.733,3.039C62.698,205.77,58.569,202.109,58.553,197.08"/>
<path fill="#FD8040" d="M102.052,23.333L51.265,72.46c-2.538,2.153-4.153,4.679-4.153,8.299c0,3.605,1.615,6.135,4.153,8.307
	l50.787,49.104l0.898,0.466l0.796-0.946l-0.445-0.951c-11.911-14.808-20.584-31.794-20.584-55.799
	c0-24.029,8.673-41.351,20.584-56.174l0.445-0.942c0.023-0.529-0.31-0.947-0.796-0.947L102.052,23.333"/>
<path fill="#FF4607" d="M141.087,19.172c-19.892,0-27.657,28.174-27.657,61.759c0,33.596,7.766,61.392,27.657,61.392
	c11.927,0,22.104-6.981,22.126-12.726c0.009-1.257-0.477-2.462-1.519-3.513c-5.658-5.458-7.877-10.924-7.893-15.742
	c-0.04-9.198,7.948-16.053,15.3-16.053c10.113,0,16.08,7.957,16.08,18.245c0,9.758-4.153,17.878-8.673,24.391l-0.262,0.822
	l0.756,0.924l0.938-0.502l50.795-49.099c2.53-2.172,4.161-4.715,4.161-8.312c0-3.624-1.631-6.15-4.161-8.306l-50.795-49.12
	l-0.938-0.497l-0.756,0.938l0.262,0.82c4.52,6.496,8.673,14.627,8.673,24.378c0,10.288-5.967,18.245-16.08,18.245
	c-7.352,0-15.34-6.851-15.3-16.045c0.016-4.821,2.234-10.288,7.893-15.75c1.042-1.054,1.527-2.248,1.519-3.509
	C163.19,26.17,153.014,19.172,141.087,19.172"/>
</svg>
