<?xml version="1.0" encoding="utf-8"?>
<!-- Generator: Adobe Illustrator 23.0.6, SVG Export Plug-In . SVG Version: 6.00 Build 0)  -->
<svg version="1.2" baseProfile="tiny" id="Carrefour_market"
	 xmlns="http://www.w3.org/2000/svg" xmlns:xlink="http://www.w3.org/1999/xlink" x="0px" y="0px" viewBox="0 0 382.8 384.3"
	 xml:space="preserve">
<g>
	<g>
		<path fill="#E30613" d="M93.8,312.2c1-3.7,6.6-4.9,8.4-4.2c1,0.3-2.9,11.6-2.9,11.6s8.4-11.3,16.8-12.1c8.4-0.8,4.2,9.4,4.2,9.4
			s8.7-9.7,15.5-8.9c6.8,0.8,3.4,8.4,2.4,10.7c-1,2.4-7.1,16.3-3.4,16.3c3.7,0,6.3,0.3,4.5,2.6c-1.8,2.4-9.2,2.6-11.5,0.8
			c-2.4-1.8-2.4-5.2,0-11.8c2.4-6.6,5.2-12.6,3.9-13.4c-1.3-0.8-6,3.4-9.7,7.9c-3.7,4.5-7.6,14.9-9.2,16.5c-1.6,1.6-5.8,2.4-6.5,1
			c-0.8-1.3,3.1-12.6,4.5-15.7c1.3-3.1,4.2-9.2,2.1-10c-2.1-0.8-7.6,4.7-11.5,10.2c-3.9,5.5-6.8,13.6-8.9,14.9
			c-2.1,1.3-5,1.4-5.5,0.5C85.1,336,92.7,315.8,93.8,312.2z"/>
		<path fill="#E30613" d="M174.8,313.1c-2.9,0.4-5.9-0.2-7.6-0.2c-3.4,0-8.3,1.5-11.5,5.1c-3.2,3.6-8.9,13.9-2.8,14.9
			c6.1,1.1,15.4-15.3,17.7-16.8c2.4-1.4,5.3-1.1,5.2-0.2c-0.1,1-4.8,13.4-4.2,16c0.6,2.6,3.1,3.2,4.8,2.7c1.8-0.4,1.7,1.7,1,2.6
			c-0.7,1-6.2,3.2-9,2.1c-2.7-1.1-4.7-5.4-3.1-10.1c0,0-6.6,7.7-11.4,9.1c-4.8,1.4-9.9,1-11.2-5.3c-1.3-6.2,3.5-12.9,6.5-15.4
			c3-2.5,13.9-11.2,26.8-9.5C179.1,308.7,179.8,312.4,174.8,313.1z"/>
		<path fill="#E30613" d="M195.6,312.9c0,0,1.1-4.2,0.8-5.1c-0.3-0.9-4.1-0.4-6,1.4c-1.8,1.8-4,10.9-4.7,13.6
			c-0.7,2.7-3.9,14.5-3.6,15.7c0.3,1.2,6,1.1,7.4-2.7c1.4-3.9,4-17.5,6-19.2c2-1.8,9.5-1.9,12.6-1.7c0,0,2.4-4.6,1.3-6.3
			c-1-1.8-3.1-1.4-6.4-0.1C199.3,309.9,196.5,311.9,195.6,312.9z"/>
		<path fill="#E30613" d="M222.4,295.9c0,0-4.1-0.8-5.6,3.7c-1.3,4-2.9,8.1-3.9,12c-0.8,3.1-6.4,22.3-7,25c-0.6,2.7,1.4,3.4,2.9,3.2
			c2.7-0.2,5.7-9.3,7.3-13.9c0,0,4.2,6.5,6,9c1.8,2.6,7.5,9.3,9.9,10.3c2.1,0.9,4.7,1,6.4,0c1.8-1.1,1.8-2.2-0.9-3.4
			c-4.2-2-9.4-8.8-12-13.4c-2.6-4.3-2.7-4.7-2.7-4.7s8.7-6.1,11.3-9.3c2.8-3.5,2.5-5.8,0.5-6.3c-1.9-0.5-4.4-0.7-5.7,2.1
			c-1.3,2.8-6.2,10.9-11.3,11.5c0,0,4.9-16.8,5.8-19.4C224.2,299.7,226,296,222.4,295.9z"/>
		<path fill="#E30613" d="M266,312.9c0.7,6.8-3.3,9.7-8.4,11.5c-4.8,1.7-13.5,1.3-13.5,1.3c-0.6,2.1-0.1,6.2,4.3,8.1
			c4.4,1.8,11.9-2.8,13.3-4.3c1.4-1.5,2.6-2.3,3.4-0.9c0.8,1.4-3.6,6.8-9.9,9.7c-6.3,2.8-15.7,0.9-17.6-5.4
			c-1.9-6.3,2.1-13.8,6.8-19.1c4.7-5.4,12.1-6.5,12.1-6.5S265.3,306.2,266,312.9z M259.4,314.6c0.4-2.2-2-4-6.5-2.2
			c-4.5,1.9-7.9,9.7-7.9,9.7C255.4,322.7,258.9,316.8,259.4,314.6z"/>
		<path fill="#E30613" d="M286.9,296.7c0,0-3.4-0.4-5.7,1.7c-2.3,2-3.8,9.8-3.8,9.8s-5.1,0.3-6.1,0.3c-1.1,0-1.5,1.2-1.8,2.4
			c-0.3,1.1-0.2,2.1,1.7,2c1.9-0.1,5.3-0.1,5.3-0.1s-3.5,10.9-4.5,14.6c-1,3.7-2.4,10.3,1.1,11.3c3.5,1,12.5,0.9,15.4-2.8
			c2.9-3.7-2.5-1.6-2.7-1.5c-0.3,0.1-6.1,1.1-7.1-0.5c-1-1.7,0-4.6,0.9-7.5c0.9-2.9,4.5-13.9,4.5-13.9s10.5,0.3,10.9-0.4
			c0.7-1.5,1.4-3.6,0.3-3.7c-1-0.1-10.5,0.1-10.5,0.1s2.6-9,3.2-10.7C288.2,296.9,286.9,296.7,286.9,296.7z"/>
	</g>
	<g>
		<path fill="#E30613" d="M143.5,50.3c0.4-0.4,0.8-0.6,1.1-0.6c0.6,0,1,0.5,1,1.2c0,0.4-0.2,0.8-0.6,1.2c-15,18.7-26,40.6-26,70.9
			c0,30.3,10.9,51.7,26,70.4c0.4,0.4,0.5,0.8,0.6,1.2c0,0.6-0.4,1.2-1,1.2c-0.3,0-0.7-0.2-1.1-0.6l-64.1-62
			c-3.2-2.7-5.2-5.9-5.2-10.5c0-4.6,2-7.8,5.2-10.5L143.5,50.3"/>
		<path fill="#E30613" d="M192.8,45c-25.1,0-34.9,35.6-34.9,77.9c0,42.4,9.8,77.5,34.9,77.5c15.1,0,27.9-8.8,27.9-16.1
			c0-1.6-0.6-3.1-1.9-4.4c-7.1-6.9-9.9-13.8-10-19.9c0-11.6,10-20.3,19.3-20.3c12.8,0,20.3,10,20.3,23c0,12.3-5.3,22.6-11,30.8
			c-0.2,0.3-0.3,0.7-0.3,1c0,0.6,0.4,1.2,0.9,1.2c0.3,0,0.8-0.2,1.2-0.6l64.1-62c3.2-2.7,5.2-5.9,5.2-10.5c0-4.6-2-7.8-5.2-10.5
			l-64.1-62c-0.4-0.4-0.8-0.6-1.2-0.6c-0.6,0-0.9,0.5-0.9,1.2c0,0.3,0.1,0.7,0.3,1c5.7,8.2,11,18.5,11,30.8c0,13-7.5,23-20.3,23
			c-9.3,0-19.4-8.6-19.3-20.3c0-6.1,2.8-13,10-19.9c1.3-1.3,1.9-2.9,1.9-4.4C220.7,53.9,207.9,45,192.8,45z"/>
	</g>
	<path fill="#E30613" d="M88.9,269.6c0-3.3,1.5-6,3.9-7.8l0,0c2.5-1.8,5.9-2.8,9.9-2.8l0,0c2.5,0,5.1,0.5,6.8,1.2l0,0v-3.7
		c-0.1-3.8-1.5-5.9-5.7-5.9l0,0c-0.8,0-2.6,0.2-4,0.7l0,0c0.1,0.5,0.2,1.1,0.2,1.6l0,0c0,1.3-0.4,2.4-1.2,3.3l0,0
		c-0.8,0.9-1.9,1.4-3.2,1.4l0,0c-2.4,0-4.3-2-4.3-4.4l0,0c0.1-4.6,5.6-7.6,13-7.6l0,0c5.9,0,9.5,1.4,11.5,3.9l0,0
		c1.8,2.3,1.9,5.6,1.9,10.3l0,0v12.2c0,2.4,1.4,3,4.3,3.5l0,0l0.3,0l0,0.3c-0.2,3.2-2.5,4.5-5.1,4.7l0,0c-0.2,0-0.4,0-0.7,0l0,0
		c-2.5,0-4.9-1.2-6.1-3.7l0,0c-1.6,1.3-5.1,3.8-9.7,3.8l0,0C94.1,280.5,88.9,275.9,88.9,269.6L88.9,269.6z M298.1,278.9
		c-0.6-0.8-0.9-1.9-1.2-3.2l0,0c-0.3,0.4-0.7,0.8-1.3,1.4l0,0c-2.2,2.1-5.1,3.3-8.4,3.3l0,0c-3.6,0-6.6-1.4-8.6-3.7l0,0
		c-3-3.6-3-8.1-3-14.5l0,0v-6.2c-0.1-2.5-0.8-3.4-3.2-3.4l0,0c-0.3,0-0.6,0-1,0.1l0,0l-0.3,0l-0.1-0.3c-0.2-0.5-0.3-0.9-0.3-1.3l0,0
		c0.1-3,3.9-4.6,6.1-5l0,0c0.8-0.1,1.5-0.2,2.2-0.2l0,0c1.8,0,3.2,0.6,4,1.6l0,0c0.8,1,1.2,2.5,1.2,4.2l0,0l-0.1,10.5
		c0,3.9,0.3,6.8,1.1,8.7l0,0c0.9,1.9,2.2,2.7,4.6,2.8l0,0c2.6,0,4.2-1.1,5.3-2.8l0,0c1-1.7,1.4-4,1.4-6.2l0,0v-8.5
		c-0.1-2.5-0.9-3.4-3.2-3.4l0,0c-0.3,0-0.6,0-1,0.1l0,0l-0.3,0l-0.1-0.3c-0.2-0.5-0.3-0.9-0.3-1.3l0,0c0.1-3,3.8-4.6,6.1-5l0,0
		c0.8-0.1,1.5-0.2,2.2-0.2l0,0c1.8,0,3.1,0.6,4,1.6l0,0c0.8,1,1.2,2.5,1.2,4.2l0,0c0,1.2-0.1,3.4-0.1,12.3l0,0
		c0,3.8-0.1,5.8-0.1,6.4l0,0c0.1,2.6,0.9,3.7,3.3,3.8l0,0c0.2,0,0.5,0,0.8,0l0,0l0.3,0l0.1,0.3c0.2,0.5,0.3,0.9,0.3,1.3l0,0
		c-0.1,2.9-3.9,4.1-6.1,4.5l0,0c-0.8,0.1-1.5,0.2-2.1,0.2l0,0c0,0,0,0,0,0l0,0C299.9,280.5,298.8,279.9,298.1,278.9L298.1,278.9z
		 M178.3,263.5c0-5.2,1.7-9.8,4.7-13l0,0c3-3.2,7.3-5.1,12.4-5.1l0,0c4.6,0,8.1,1.7,10.3,4.2l0,0c2.3,2.5,3.3,5.7,3.3,8.6l0,0
		c0,1.7-0.4,3.4-1.1,4.7l0,0l-0.1,0.2h-20.8c0.3,6,4.2,10.3,10.9,10.3l0,0c4.1,0,7.3-2.3,8.3-3.6l0,0l0.2-0.3l0.3,0.2
		c0.6,0.4,1.2,1.2,1.2,2.7l0,0c0,3.5-4.1,7.9-13.2,7.9l0,0C185.8,280.4,178.3,273.1,178.3,263.5L178.3,263.5z M251.9,280.4
		c-4.7,0-8.9-1.8-12-4.8l0,0c-3.1-3.1-5-7.5-5-12.7l0,0c0-10.4,8.2-17.4,17.3-17.4l0,0c4.9,0,9.2,1.8,12.3,4.8l0,0
		c3,3.1,4.8,7.4,4.8,12.6l0,0c0,5.2-1.9,9.6-5,12.7l0,0C261.2,278.6,256.8,280.4,251.9,280.4L251.9,280.4
		C251.9,280.4,251.9,280.4,251.9,280.4L251.9,280.4z M315.5,279.3c-1.4-0.4-2.4-1.2-2.4-2.4l0,0c0-0.5,0.1-1,0.4-1.5l0,0l0.1-0.2
		l0.2,0c0.5-0.1,1.5-0.4,2.3-1l0,0c0.9-0.7,1.2-1.7,1.2-4.5l0,0v-14c-0.1-2.4-0.6-3.2-2.6-3.2l0,0c-0.4,0-1,0.1-1.6,0.2l0,0
		l-0.3,0.1l-0.1-0.3c-0.2-0.5-0.3-1-0.3-1.5l0,0c0.1-2.8,3.1-4.2,5.1-4.9l0,0c0.8-0.2,1.6-0.4,2.3-0.4l0,0c2.8,0,4.3,2,4.9,4.6l0,0
		c1.8-3,4.7-5,7.6-5l0,0c2.7,0,5.4,1.8,5.4,5.1l0,0c0,2.4-1.7,4.9-4.5,4.9l0,0c-2.1,0-3.9-1.4-4.3-3.4l0,0c-1.6,0.5-3.8,2.5-3.8,9.4
		l0,0v8.4c0,2.8,0.4,3.8,1.2,4.4l0,0c0.8,0.6,2.5,0.9,3,1l0,0l0.2,0l0.1,0.2c0.3,0.6,0.4,1.1,0.4,1.6l0,0c0,1.1-0.8,1.9-2.2,2.3l0,0
		c-1.4,0.4-3.4,0.6-6.1,0.6l0,0C319.1,279.9,317,279.7,315.5,279.3L315.5,279.3z M214.9,279.3c-1.5-0.4-2.4-1.2-2.4-2.4l0,0
		c0-0.5,0.1-1,0.4-1.5l0,0l0.1-0.2l0.2,0c0.6-0.1,1.5-0.4,2.3-1l0,0c0.8-0.7,1.2-1.7,1.2-4.5l0,0v-18.3l-4.9-0.2l-0.1-0.2
		c-0.3-0.6-0.4-1.2-0.4-1.7l0,0c0-1.8,1.4-3,3.1-3l0,0h2.2v-2c0-4.9,0.9-7.7,2.2-9.6l0,0c1.9-3,5.3-5,10.3-5l0,0
		c6.4,0,11.7,3,11.8,7.7l0,0c0,2.1-1.4,4.6-4.4,4.6l0,0c-2.2,0-4.3-1.9-4.3-4.3l0,0c0-0.9,0.3-1.8,0.7-2.4l0,0
		c-0.7-0.6-1.9-0.9-3.2-0.9l0,0c-2,0-3.1,0.7-3.8,1.8l0,0c-0.7,1.1-0.9,2.8-0.9,4.7l0,0v5.3h8.5l0.1,0.2c0.3,0.6,0.4,1.2,0.4,1.8
		l0,0c0,1.8-1.3,3.2-3,3.4l0,0c-0.6,0.1-1.3,0.1-1.9,0.1l0,0c-1.4,0-2.8-0.1-3.8-0.1l0,0v18.2c0,2.7,0.5,3.7,1.3,4.4l0,0
		c0.7,0.6,2.8,0.9,3.5,1l0,0l0.2,0l0.1,0.2c0.2,0.5,0.3,1,0.3,1.4l0,0c0,1.3-1,2.1-2.6,2.5l0,0c-1.6,0.4-3.8,0.6-6.6,0.6l0,0
		C218.5,279.9,216.4,279.7,214.9,279.3L214.9,279.3z M155.9,279.3c-1.4-0.4-2.4-1.2-2.4-2.4l0,0c0-0.5,0.1-1,0.4-1.5l0,0l0.1-0.2
		l0.2,0c0.6-0.1,1.5-0.4,2.3-1l0,0c0.8-0.7,1.2-1.7,1.2-4.5l0,0v-14c-0.1-2.3-0.6-3.2-2.6-3.2l0,0c-0.4,0-1,0.1-1.6,0.2l0,0
		l-0.3,0.1l-0.1-0.3c-0.2-0.5-0.3-1-0.3-1.5l0,0c0.1-2.8,3.1-4.2,5.2-4.8l0,0c0.8-0.3,1.6-0.4,2.3-0.4l0,0c2.8,0,4.3,2,5,4.5l0,0
		c1.8-3,4.8-4.9,7.6-4.9l0,0c2.7,0,5.4,1.8,5.4,5.1l0,0c0,2.4-1.7,4.9-4.5,4.9l0,0c-2.1,0-3.9-1.4-4.3-3.4l0,0
		c-1.6,0.5-3.9,2.5-3.9,9.4l0,0v8.4c0,2.8,0.4,3.7,1.2,4.4l0,0c0.8,0.6,2.4,0.9,3,1l0,0l0.2,0l0.1,0.2c0.3,0.6,0.4,1.1,0.4,1.6l0,0
		c0,1.1-0.8,1.9-2.2,2.3l0,0c-1.4,0.4-3.4,0.6-6.1,0.6l0,0C159.5,279.9,157.4,279.7,155.9,279.3L155.9,279.3z M128,279.3
		c-1.4-0.4-2.4-1.2-2.4-2.4l0,0c0-0.5,0.1-1,0.4-1.5l0,0l0.1-0.2l0.2,0c0.6-0.1,1.5-0.4,2.3-1l0,0c0.8-0.7,1.2-1.7,1.2-4.5l0,0v-14
		c-0.1-2.3-0.6-3.2-2.6-3.2l0,0c-0.4,0-1,0.1-1.6,0.2l0,0l-0.3,0.1l-0.1-0.3c-0.2-0.5-0.3-1-0.3-1.5l0,0c0-2.8,3.1-4.2,5.2-4.8l0,0
		c0.8-0.3,1.6-0.4,2.3-0.4l0,0c2.8,0,4.3,2,5,4.5l0,0c1.8-3,4.8-4.9,7.6-4.9l0,0c2.7,0,5.4,1.8,5.4,5.1l0,0c0,2.4-1.7,4.9-4.5,4.9
		l0,0c-2.1,0-3.9-1.4-4.3-3.4l0,0c-1.6,0.5-3.9,2.5-3.9,9.4l0,0v8.4c0,2.8,0.4,3.7,1.2,4.4l0,0c0.8,0.6,2.4,0.9,3,1l0,0l0.2,0
		l0.1,0.2c0.3,0.6,0.4,1.1,0.4,1.6l0,0c0,1.1-0.8,1.9-2.2,2.3l0,0c-1.4,0.4-3.4,0.6-6.1,0.6l0,0C131.6,279.9,129.5,279.7,128,279.3
		L128,279.3z M244.3,261.9c0,9.2,4,13.1,7.9,13.1l0,0c4.5,0,7.7-4,7.7-11.7l0,0c0-4-0.9-7.2-2.3-9.4l0,0c-1.5-2.2-3.4-3.3-5.7-3.3
		l0,0C247.2,250.6,244.3,254.7,244.3,261.9L244.3,261.9z M104.2,263.8c-3.7,0-6.2,1.8-6.2,5.2l0,0c0,3.2,2.2,5.4,5.6,5.4l0,0
		c2.2,0,4.5-1.2,5.9-3l0,0v-4.7c0-0.6-0.4-1.3-1.3-1.9l0,0C107.3,264.2,105.9,263.8,104.2,263.8L104.2,263.8z M199.5,258.3
		c0.7,0,0.8-0.2,1-0.4l0,0c0.1-0.2,0.2-0.7,0.2-1.2l0,0c-0.1-3.2-2.5-6.1-6.4-6.1l0,0c-4.8,0-6.7,3.8-7,7.7l0,0L199.5,258.3
		L199.5,258.3z M51.7,274.4c-4.1-4.2-6.7-10.2-6.7-17.8l0,0c0-7.2,2.6-13.3,6.5-17.6l0,0c4-4.3,9.4-6.8,15.1-6.8l0,0
		c10.3,0,17.5,7.2,17.5,13.4l0,0c0,3.3-2.1,5.9-4.9,5.9l0,0c-1.4,0-2.7-0.5-3.7-1.4l0,0c-1-0.9-1.6-2.2-1.6-3.8l0,0
		c0-1.9,1-3.1,1.7-4l0,0c-1.4-2.3-4-4.3-8.2-4.3l0,0c-3.6,0-6.5,1.8-8.7,5.1l0,0c-2.2,3.2-3.4,7.9-3.4,13.4l0,0
		c0,5.5,1.3,10.1,3.5,13.4l0,0c2.2,3.2,5.3,5.1,8.8,5.1l0,0c4.2,0,6.8-1.9,8.2-4.3l0,0c-0.7-0.8-1.7-2-1.7-3.9l0,0
		c0-1.6,0.6-3,1.6-3.9l0,0c1-0.9,2.3-1.4,3.7-1.4l0,0c2.8,0,4.9,2.6,4.9,5.9l0,0c0,6.2-7.3,13.4-17.5,13.4l0,0
		C61.2,280.8,55.7,278.5,51.7,274.4L51.7,274.4z"/>
</g>
<rect x="0" y="0" fill="none" width="382.8" height="384.3"/>
<g>
</g>
<g>
</g>
<g>
</g>
<g>
</g>
<g>
</g>
<g>
</g>
</svg>
