<?xml version="1.0" encoding="utf-8"?>
<!-- Generator: Adobe Illustrator 15.0.2, SVG Export Plug-In . SVG Version: 6.00 Build 0)  -->
<svg version="1.2" baseProfile="tiny" id="Calque_1"
	 xmlns="http://www.w3.org/2000/svg" xmlns:xlink="http://www.w3.org/1999/xlink" x="0px" y="0px" width="280px" height="164px"
	 viewBox="0 58.5 280 164" overflow="inherit" xml:space="preserve">
<g>
	<path fill-rule="evenodd" fill="#FCCE22" d="M234.058,99.404c12.289,6.116,21.8,13.149,28.535,21.101
		c6.976,8.235,10.464,16.854,10.464,25.854c0,8.999-3.488,17.617-10.464,25.852c-6.735,7.953-16.246,14.988-28.535,21.104
		c-12.267,6.138-26.372,10.888-42.312,14.252c-16.466,3.475-33.729,5.211-51.79,5.211c-18.06,0-35.326-1.736-51.79-5.211
		c-15.941-3.364-30.045-8.114-42.311-14.252c-12.289-6.116-21.801-13.151-28.536-21.104c-6.975-8.234-10.463-16.853-10.463-25.852
		c0-1.269,0.088-2.6,0.262-3.997v-0.035c2.383-15.879,9.393-31.487,21.025-46.824c5.116-6.749,10.594-12.614,16.433-17.596
		c5.815-4.979,11.371-8.562,16.662-10.746c-5.029,6.968-7.106,16.329-6.232,28.081c11.721-4.871,24.72-8.618,38.999-11.238
		c14.761-2.708,30.077-4.065,45.951-4.065c18.04,0,35.303,1.737,51.79,5.209C207.686,88.514,221.791,93.265,234.058,99.404z"/>
	<g>
		<path fill-rule="evenodd" fill="#F7151B" d="M69.308,122.667l-13.383,0.787c-0.372-2.118-1.116-3.637-2.23-4.554
			c-1.116-0.962-2.679-1.442-4.69-1.442c-1.618,0-2.865,0.35-3.739,1.047c-0.832,0.721-1.247,1.585-1.247,2.591
			c0,0.741,0.35,1.408,1.049,1.997c0.677,0.611,2.264,1.18,4.756,1.705c6.318,1.398,10.758,2.763,13.316,4.097
			c2.69,1.397,4.635,3.111,5.839,5.144c1.222,2.075,1.835,4.369,1.835,6.88c0,3.016-0.808,5.744-2.428,8.192
			c-1.639,2.534-3.914,4.433-6.822,5.701c-2.864,1.288-6.548,1.934-11.053,1.934c-7.784,0-13.185-1.508-16.203-4.521
			c-2.997-3.038-4.69-6.884-5.084-11.536l13.48-0.852c0.328,2.229,0.929,3.921,1.803,5.08c1.488,1.876,3.575,2.816,6.267,2.816
			c2.032,0,3.595-0.481,4.688-1.442c1.093-0.96,1.64-2.075,1.64-3.341c0-1.202-0.524-2.284-1.574-3.244
			c-1.072-0.94-3.5-1.835-7.283-2.688c-6.187-1.397-10.615-3.275-13.283-5.635c-2.667-2.337-4.001-5.319-4.001-8.946
			c0-2.423,0.679-4.685,2.034-6.783c1.355-2.096,3.411-3.767,6.167-5.012c2.776-1.2,6.527-1.803,11.249-1.803
			c5.839,0,10.311,1.104,13.416,3.311C66.891,114.356,68.717,117.862,69.308,122.667z"/>
	</g>
	<g>
		<rect x="72.652" y="122.798" fill-rule="evenodd" fill="#F7151B" width="12.627" height="33.128"/>
	</g>
	<g>
		<rect x="72.652" y="110.118" fill-rule="evenodd" fill="#1E6B40" width="12.627" height="10.093"/>
	</g>
	<g>
		<polygon fill-rule="evenodd" fill="#F7151B" points="141.071,110.15 141.071,155.927 127.789,155.927 127.789,126.632 
			119.72,155.927 109.256,155.927 101.122,126.011 101.122,155.927 87.839,155.927 87.839,110.15 107.322,110.15 114.539,138.625 
			121.753,110.15 		"/>
	</g>
	<g>
		<path fill-rule="evenodd" fill="#F7151B" d="M184.137,124.798c0,2.38-0.48,4.827-1.443,7.338
			c-0.962,2.491-2.143,4.414-3.542,5.768c-2.756,2.687-6.985,4.031-12.693,4.031h-8.626v13.991H144.45V110.15h23.518
			c2.491,0,4.787,0.405,6.888,1.213c1.945,0.741,3.585,1.77,4.918,3.08C182.683,117.305,184.137,120.756,184.137,124.798z
			 M167.409,122.209l-2.983-0.295h-6.494v8.945l7.51,0.098l2.197-0.295c2.1-0.653,3.083-2.173,2.953-4.554
			C170.459,124.099,169.4,122.798,167.409,122.209z"/>
	</g>
	<g>
		<polygon fill-rule="evenodd" fill="#F7151B" points="220.283,155.927 186.006,155.927 186.006,110.15 200.176,110.15 
			200.176,143.965 220.283,143.965 		"/>
	</g>
	<g>
		<path fill-rule="evenodd" fill="#F7151B" d="M244.159,110.118h17.057l-19.812,52.789c-2.47,5.701-4.897,9.871-7.28,12.517
			c-1.617,1.79-3.782,2.915-6.494,3.373l-196.96,0.134v-14.092h189.317c2.275,0,4.266-1.659,5.97-4.98
			c0.853-1.659,1.477-3.32,1.871-4.979l-19.354-44.76h18.435l8.953,29.229L244.159,110.118z"/>
	</g>
	<g>
		<polygon fill-rule="evenodd" fill="#F7151B" points="54.776,167.951 60.058,167.951 62.091,173.098 64.124,167.951 
			69.438,167.951 69.438,176.406 66.125,176.406 66.125,169.951 63.566,176.406 60.582,176.406 58.056,169.951 58.056,176.406 
			54.776,176.406 		"/>
	</g>
	<g>
		<path fill-rule="evenodd" fill="#F7151B" d="M124.771,168.935c0.392,0.394,0.59,0.84,0.59,1.345c0,0.459-0.154,0.862-0.458,1.21
			c-0.307,0.351-0.733,0.625-1.28,0.819l-1.411,0.36l1.017,0.295l0.656,0.462l0.557,0.521l1.969,2.459h-4.526l-2.197-2.59
			l-0.723-0.655l-0.952-0.197h-0.394v3.442h-4.033v-8.455h6.723l2.852,0.197C123.841,168.279,124.377,168.542,124.771,168.935z"/>
	</g>
	<g>
		<polygon fill-rule="evenodd" fill="#F7151B" points="147.533,172.934 145.434,174.341 145.434,176.406 141.4,176.406 
			141.4,167.951 145.434,167.951 145.434,171.131 149.697,167.951 155.012,167.951 150.255,171.131 155.241,176.406 
			150.289,176.406 		"/>
	</g>
	<g>
		<polygon fill-rule="evenodd" fill="#F7151B" points="181.251,176.406 170.263,176.406 170.263,167.951 181.055,167.951 
			181.055,169.755 174.298,169.755 174.298,171.099 180.596,171.099 180.596,172.833 174.298,172.833 174.298,174.505 
			181.251,174.505 		"/>
	</g>
	<g>
		<polygon fill-rule="evenodd" fill="#F7151B" points="208.44,170.014 204.341,170.014 204.341,176.406 200.307,176.406 
			200.307,170.014 196.207,170.014 196.207,167.951 208.44,167.951 		"/>
	</g>
	<g>
		<polygon fill-rule="evenodd" fill="#FFFFFF" points="54.776,167.951 60.058,167.951 62.091,173.098 64.124,167.951 
			69.438,167.951 69.438,176.406 66.125,176.406 66.125,169.951 63.566,176.406 60.582,176.406 58.056,169.951 58.056,176.406 
			54.776,176.406 		"/>
	</g>
	<g>
		<polygon fill-rule="evenodd" fill="#FFFFFF" points="147.533,172.934 145.434,174.341 145.434,176.406 141.4,176.406 
			141.4,167.951 145.434,167.951 145.434,171.131 149.697,167.951 155.012,167.951 150.255,171.131 155.241,176.406 
			150.289,176.406 		"/>
	</g>
	<g>
		<polygon fill-rule="evenodd" fill="#FFFFFF" points="181.251,176.406 170.263,176.406 170.263,167.951 181.055,167.951 
			181.055,169.755 174.298,169.755 174.298,171.099 180.596,171.099 180.596,172.833 174.298,172.833 174.298,174.505 
			181.251,174.505 		"/>
	</g>
	<g>
		<polygon fill-rule="evenodd" fill="#FFFFFF" points="208.44,170.014 204.341,170.014 204.341,176.406 200.307,176.406 
			200.307,170.014 196.207,170.014 196.207,167.951 208.44,167.951 		"/>
	</g>
	<g>
		<polygon fill-rule="evenodd" fill="#F7151B" points="90.003,173.193 91.447,170.147 92.856,173.193 		"/>
	</g>
	<g>
		<polygon fill-rule="evenodd" fill="#F7151B" points="94.364,176.406 93.709,174.996 89.15,174.996 88.495,176.406 84.362,176.406 
			89.281,167.951 93.709,167.951 98.597,176.406 		"/>
	</g>
	<g>
		<path fill-rule="evenodd" fill="#FFFFFF" d="M90.003,173.193h2.853l-1.409-3.046L90.003,173.193z M89.15,174.996l-0.655,1.41
			h-4.133l4.919-8.455h4.428l4.888,8.455h-4.232l-0.655-1.41H89.15z"/>
	</g>
	<g>
		<path fill-rule="evenodd" fill="#FFFFFF" d="M119.425,169.656h-1.806v1.702l2.789-0.096l0.656-0.296
			c0.154-0.133,0.229-0.297,0.229-0.491c0-0.242-0.131-0.449-0.394-0.625L119.425,169.656z M120.31,167.951l2.852,0.197
			c0.68,0.131,1.215,0.394,1.609,0.786c0.392,0.394,0.59,0.84,0.59,1.345c0,0.459-0.154,0.862-0.458,1.21
			c-0.307,0.351-0.733,0.625-1.28,0.819l-1.411,0.36l1.017,0.295l0.656,0.462l0.557,0.521l1.969,2.459h-4.526l-2.197-2.59
			l-0.723-0.655l-0.952-0.197h-0.394v3.442h-4.033v-8.455H120.31z"/>
	</g>
	<g>
		<path fill-rule="evenodd" fill="#1E6B40" d="M82.819,104.023c0.308,0.371,0.46,0.774,0.46,1.213c0,0.567-0.208,1.059-0.624,1.475
			c-0.414,0.436-1.005,0.774-1.77,1.014l-2.82,0.36c-1.991,0-3.378-0.272-4.166-0.819c-0.766-0.546-1.202-1.233-1.312-2.062
			l3.444-0.164c0.11,0.437,0.264,0.742,0.459,0.917c0.395,0.328,0.929,0.492,1.608,0.492l1.213-0.261
			c0.285-0.154,0.427-0.351,0.427-0.591c0-0.195-0.132-0.382-0.395-0.556c-0.262-0.154-0.885-0.317-1.87-0.492
			c-1.573-0.263-2.711-0.591-3.411-0.983c-0.7-0.436-1.05-0.972-1.05-1.606c0-0.394,0.186-0.797,0.558-1.213
			c0.328-0.349,0.852-0.644,1.574-0.884l2.886-0.328c1.508,0,2.657,0.198,3.444,0.589c0.767,0.395,1.236,1.016,1.411,1.87
			l-3.444,0.13c-0.108-0.371-0.295-0.633-0.559-0.786l-1.213-0.264c-0.394,0-0.71,0.066-0.952,0.197
			c-0.196,0.131-0.294,0.285-0.294,0.459l0.229,0.361l1.213,0.295l3.444,0.721C81.989,103.368,82.491,103.673,82.819,104.023z"/>
	</g>
	<g>
		<path fill-rule="evenodd" fill="#1E6B40" d="M86.526,99.699h3.641v5.013c0,0.459,0.175,0.808,0.524,1.048
			c0.372,0.263,0.875,0.395,1.508,0.395c0.613,0,1.104-0.121,1.477-0.362c0.35-0.261,0.524-0.622,0.524-1.081v-5.013h3.641v4.913
			c0,0.503-0.108,0.962-0.328,1.378c-0.197,0.436-0.535,0.807-1.016,1.113c-0.46,0.327-0.94,0.557-1.442,0.688l-2.559,0.293
			l-1.904-0.098l-1.705-0.327l-1.246-0.721c-0.33-0.241-0.591-0.556-0.788-0.949c-0.22-0.504-0.328-0.962-0.328-1.378V99.699z"/>
	</g>
	<g>
		<path fill-rule="evenodd" fill="#1E6B40" d="M107.747,101.631c-0.24-0.174-0.71-0.261-1.41-0.261h-1.017v1.834h0.886
			c0.677,0,1.168-0.088,1.475-0.262c0.285-0.154,0.426-0.371,0.426-0.656C108.107,102.047,107.988,101.829,107.747,101.631z
			 M107.29,104.876h-1.969v3.046h-3.674v-8.223h6.068c1.333,0,2.317,0.217,2.953,0.654c0.655,0.438,0.984,1.059,0.984,1.867
			c0,0.83-0.363,1.485-1.084,1.967C109.89,104.646,108.796,104.876,107.29,104.876z"/>
	</g>
	<g>
		<polygon fill-rule="evenodd" fill="#1E6B40" points="124.277,104.448 118.604,104.448 118.604,106.086 124.902,106.086 
			124.902,107.922 114.963,107.922 114.963,99.699 124.705,99.699 124.705,101.434 118.604,101.434 118.604,102.745 
			124.277,102.745 		"/>
	</g>
	<g>
		<path fill-rule="evenodd" fill="#1E6B40" d="M138.416,100.648c0.372,0.372,0.557,0.808,0.557,1.31c0,0.481-0.144,0.874-0.426,1.18
			l-1.147,0.818l-1.28,0.328l0.952,0.296l0.589,0.459l0.492,0.492l1.771,2.391h-4.1l-1.968-2.521
			c-0.22-0.308-0.437-0.515-0.656-0.624l-0.885-0.196h-0.328v3.341h-3.674v-8.223h6.067l2.592,0.197
			C137.607,100.026,138.087,100.277,138.416,100.648z M134.479,102.909c0.263-0.044,0.459-0.131,0.591-0.262l0.228-0.458
			c0-0.285-0.12-0.492-0.36-0.625c-0.218-0.152-0.667-0.228-1.344-0.228h-1.607v1.67h1.541L134.479,102.909z"/>
	</g>
	<g>
		<polygon fill-rule="evenodd" fill="#1E6B40" points="155.732,107.922 152.747,107.922 152.747,101.631 150.451,107.922 
			147.763,107.922 145.467,101.631 145.467,107.922 142.449,107.922 142.449,99.699 147.271,99.699 149.107,104.712 150.943,99.699 
			155.732,99.699 		"/>
	</g>
	<g>
		<path fill-rule="evenodd" fill="#1E6B40" d="M166.721,106.547h-4.132l-0.592,1.375h-3.705l4.428-8.223h3.968l4.427,8.223h-3.802
			L166.721,106.547z M165.934,104.776l-1.28-2.948l-1.277,2.948H165.934z"/>
	</g>
	<g>
		<path fill-rule="evenodd" fill="#1E6B40" d="M182.399,99.896c0.633,0.13,1.116,0.381,1.442,0.752
			c0.372,0.372,0.559,0.808,0.559,1.31c0,0.436-0.143,0.83-0.428,1.18c-0.283,0.348-0.666,0.623-1.148,0.818l-1.278,0.328
			l0.95,0.296l0.559,0.459l0.524,0.492l1.772,2.391h-4.135l-1.934-2.521l-0.656-0.624l-0.919-0.196h-0.294v3.341h-3.675v-8.223
			h6.068L182.399,99.896z M180.496,102.647l0.229-0.458c0-0.285-0.12-0.492-0.361-0.625l-1.376-0.228h-1.574v1.67h1.541l0.952-0.098
			L180.496,102.647z"/>
	</g>
	<g>
		<path fill-rule="evenodd" fill="#1E6B40" d="M191.453,105.663c0.413,0.348,0.972,0.524,1.673,0.524
			c0.654,0,1.18-0.144,1.573-0.427c0.37-0.307,0.623-0.71,0.755-1.212l3.214,0.688c-0.241,0.633-0.58,1.157-1.018,1.572
			c-0.416,0.372-0.983,0.689-1.704,0.949l-2.625,0.328l-3.148-0.393c-0.811-0.262-1.51-0.72-2.101-1.375
			c-0.588-0.654-0.886-1.497-0.886-2.524c0-1.375,0.525-2.423,1.574-3.145c1.008-0.744,2.473-1.114,4.396-1.114
			c1.442,0,2.613,0.207,3.51,0.623c0.829,0.415,1.465,1.058,1.902,1.933l-3.215,0.524l-0.36-0.558l-0.755-0.459l-0.985-0.164
			c-0.852,0-1.486,0.242-1.9,0.721c-0.351,0.328-0.526,0.862-0.526,1.606C190.827,104.701,191.035,105.334,191.453,105.663z"/>
	</g>
	<g>
		<polygon fill-rule="evenodd" fill="#1E6B40" points="209.523,99.699 213.165,99.699 213.165,107.922 209.523,107.922 
			209.523,104.612 205.521,104.612 205.521,107.922 201.881,107.922 201.881,99.699 205.521,99.699 205.521,102.581 
			209.523,102.581 		"/>
	</g>
	<g>
		<path fill-rule="evenodd" fill="#1E6B40" d="M226.316,104.448h-5.673v1.638h6.265v1.836h-9.938v-8.223h9.774v1.735h-6.101v1.311
			h5.673V104.448z M221.627,97.502h2.82l-2.591,1.671h-1.573L221.627,97.502z"/>
	</g>
</g>
</svg>
